# xmcd CD database file
#
# Track frame offsets:
#	150
#	17997
#	31207
#	44852
#	56300
#	76382
#	91117
#	108472
#	123227
#	133910
#
# Disc length: 1993 seconds
#
# Revision: 2
# Processed by: cddbd v1.5.2PL0 Copyright (c) Steve Scherf et al.
# Submitted via: CDex 1.74
#
DISCID=8107c70a
DTITLE=Billy Charne - Fresno Rodeo
DYEAR=1995
DGENRE=Country
TTITLE0=Fresno Rodeo
TTITLE1=To ma ray tom o ray
TTITLE2=Sally in Dallas
TTITLE3=Bye baby bye
TTITLE4=Startin' over again
TTITLE5=Suzannah
TTITLE6=Rodeo Cowboys
TTITLE7=Stealin' horses
TTITLE8=In my dreams
TTITLE9=The bandit
EXTD=YEAR: 1995
EXTT0=
EXTT1=
EXTT2=
EXTT3=
EXTT4=
EXTT5=
EXTT6=
EXTT7=
EXTT8=
EXTT9=
PLAYORDER=
